<svg xmlns="http://www.w3.org/2000/svg" viewBox="0 0 105 105"><g fill="none" fill-rule="nonzero"><path fill="#FD953E" d="M103.1 65c-6.995 28.036-35.393 45.093-63.429 38.098C11.635 96.104-5.422 67.706 1.572 39.67 8.566 11.634 36.964-5.424 65 1.57A52.32 52.32 0 0 1 103.1 65z"/><path fill="#FFF" d="M75.4 44.88c1-7-4.26-10.71-11.52-13.2l2.36-9.43-5.74-1.44L58.21 30c-1.51-.38-3.06-.73-4.6-1.08l2.31-9.25-5.75-1.43-2.35 9.43-3.67-.86-7.92-2-1.53 6.14s4.27 1 4.17 1c2.33.58 2.75 2.12 2.68 3.33l-6.44 25.87a2.07 2.07 0 0 1-2.62 1.36c0 .09-4.18-1-4.18-1l-2.85 6.57 7.47 1.86c1.39.35 2.76.72 4.09 1.06l-2.37 9.54 5.73 1.43 2.36-9.44c1.57.42 3.09.82 4.58 1.19L45 83.08l5.74 1.43L53.09 75c9.79 1.85 17.15 1.11 20.25-7.75 2.5-7.13-.12-11.24-5.27-13.92 3.75-.87 6.58-3.34 7.33-8.44v-.01zm-13.12 18.4c-1.78 7.13-13.78 3.28-17.68 2.31L47.76 53c3.89.92 16.37 2.84 14.52 10.28zm1.78-18.5C62.44 51.27 52.44 48 49.2 47.16l2.86-11.47c3.24.82 13.68 2.31 12 9.09z"/></g></svg>